<svg width="198" height="46" viewBox="0 0 198 46" fill="none" xmlns="http://www.w3.org/2000/svg">
<path d="M37.2793 20.8023V34.8742C37.2793 36.0702 37.0356 37.2101 36.548 38.294C36.098 39.3405 35.4792 40.2562 34.6917 41.0411C33.9042 41.826 32.9666 42.4427 31.8791 42.8912C30.829 43.3771 29.704 43.62 28.5039 43.62C27.3038 43.62 26.1788 43.3958 25.1287 42.9473C24.0787 42.4988 23.1599 41.9008 22.3723 41.1533C21.5848 40.3684 20.9473 39.4714 20.4598 38.4622C20.0097 37.4157 19.766 36.2944 19.7285 35.0984V24.7267C19.616 23.5681 19.0909 22.7271 18.1534 22.2039C18.6784 21.9422 19.2034 21.8114 19.7285 21.8114V8.58048C19.766 7.38446 20.0097 6.2632 20.4598 5.21668C20.9473 4.17017 21.5848 3.27315 22.3723 2.52564C23.1599 1.74076 24.0787 1.12406 25.1287 0.675553C26.1788 0.227046 27.3038 0.00279236 28.5039 0.00279236C29.704 0.00279236 30.829 0.245734 31.8791 0.731616C32.9666 1.18012 33.9042 1.79682 34.6917 2.5817C35.4792 3.36659 36.098 4.30098 36.548 5.38487C37.0356 6.43139 37.2793 7.57134 37.2793 8.80473C37.2793 9.44011 37.3356 9.90731 37.4481 10.2063C37.5981 10.5053 37.7481 10.7483 37.8981 10.9351C38.0481 11.122 38.1794 11.2902 38.2919 11.4397C38.4419 11.5892 38.5169 11.8321 38.5169 12.1685H35.5917C34.9917 12.0938 34.6917 11.7761 34.6917 11.2155C34.6917 11.7761 34.3917 12.0938 33.7916 12.1685H30.8103C30.8103 11.8321 30.8665 11.5892 30.979 11.4397C31.129 11.2902 31.279 11.122 31.429 10.9351C31.579 10.7483 31.7103 10.5053 31.8228 10.2063C31.9728 9.90731 32.0478 9.42143 32.0478 8.74867V8.69261C32.0478 8.20672 32.0291 7.6274 31.9916 6.95464C31.9541 6.24451 31.8228 5.57175 31.5978 4.93636C31.3728 4.30098 31.0165 3.75904 30.529 3.31053C30.0415 2.86202 29.3664 2.63777 28.5039 2.63777C27.6039 2.63777 26.9101 2.88071 26.4225 3.36659C25.9725 3.8151 25.635 4.35704 25.41 4.99243C25.185 5.62781 25.0537 6.30057 25.0162 7.01071C24.9787 7.72084 24.96 8.31885 24.96 8.80473V21.8114C25.485 21.8114 26.01 21.9422 26.535 22.2039C25.5975 22.7271 25.0725 23.5681 24.96 24.7267V34.8742C24.96 35.3601 24.9787 35.9581 25.0162 36.6682C25.0537 37.341 25.185 38.0137 25.41 38.6865C25.635 39.3219 25.9725 39.8638 26.4225 40.3123C26.9101 40.7608 27.6039 40.9851 28.5039 40.9851C29.4039 40.9851 30.079 40.7608 30.529 40.3123C31.0165 39.8638 31.3728 39.3219 31.5978 38.6865C31.8228 38.0137 31.9541 37.341 31.9916 36.6682C32.0291 35.9581 32.0478 35.3601 32.0478 34.8742V23.3812C31.6353 23.4186 31.279 23.5868 30.979 23.8858C30.7165 24.1848 30.5852 24.5398 30.5852 24.951V25.007C30.5477 25.5677 30.3977 26.0535 30.1352 26.4647C29.9102 26.8384 29.5727 27.1748 29.1227 27.4738C28.6727 27.7354 28.0164 27.8663 27.1538 27.8663V20.8023H37.2793ZM22.7661 19.1764C22.7661 18.9522 22.7474 18.7279 22.7099 18.5037C22.7099 18.2794 22.7099 18.0739 22.7099 17.887V16.5975C22.6724 15.7753 22.6536 14.9904 22.6536 14.2429C22.6536 13.4954 22.6349 12.7852 22.5974 12.1125C22.5599 11.7761 22.5411 11.4771 22.5411 11.2155C22.5411 10.9164 22.5224 10.6174 22.4849 10.3184C22.4849 10.0568 22.4661 9.81387 22.4286 9.58962C22.4286 9.32799 22.4286 9.10374 22.4286 8.91686C22.4286 8.72998 22.4099 8.56179 22.3723 8.41229C22.3723 8.26279 22.3723 8.13197 22.3723 8.01984V7.73953C22.3348 7.73953 22.3161 7.75822 22.3161 7.79559V8.01984C22.3161 8.13197 22.2973 8.26279 22.2598 8.41229C22.2598 8.56179 22.2598 8.72998 22.2598 8.91686C22.2598 9.10374 22.2411 9.32799 22.2036 9.58962C22.2036 9.81387 22.2036 10.0568 22.2036 10.3184C22.1661 10.6174 22.1473 10.9164 22.1473 11.2155C22.1473 11.4771 22.1286 11.7761 22.0911 12.1125C22.0536 12.7852 22.0348 13.4954 22.0348 14.2429C22.0348 14.9904 22.0161 15.7753 21.9786 16.5975V17.887C21.9786 18.0739 21.9598 18.2794 21.9223 18.5037C21.9223 18.7279 21.9223 18.9522 21.9223 19.1764V24.3903C21.9223 24.5025 21.9223 24.6146 21.9223 24.7267C21.9598 24.8388 21.9786 24.9323 21.9786 25.007V26.9132C21.9786 27.3243 21.9786 27.7354 21.9786 28.1466C22.0161 28.5203 22.0348 28.8941 22.0348 29.2678C22.0348 29.679 22.0348 30.0714 22.0348 30.4452C22.0723 30.7815 22.0911 31.0992 22.0911 31.3982C22.1286 31.7346 22.1473 32.0523 22.1473 32.3513C22.1473 32.6503 22.1661 32.9306 22.2036 33.1923C22.2036 33.4913 22.2036 33.7529 22.2036 33.9772C22.2411 34.2014 22.2598 34.407 22.2598 34.5938C22.2598 34.7807 22.2598 34.9489 22.2598 35.0984C22.2973 35.2479 22.3161 35.3787 22.3161 35.4909V35.7712C22.3161 35.8086 22.3348 35.8272 22.3723 35.8272V35.4909C22.3723 35.3787 22.3723 35.2479 22.3723 35.0984C22.4099 34.9489 22.4286 34.7807 22.4286 34.5938C22.4286 34.407 22.4286 34.2014 22.4286 33.9772C22.4661 33.7529 22.4849 33.4913 22.4849 33.1923C22.5224 32.9306 22.5411 32.6503 22.5411 32.3513C22.5411 32.0523 22.5599 31.7346 22.5974 31.3982C22.5974 31.0992 22.5974 30.7815 22.5974 30.4452C22.6349 30.0714 22.6536 29.679 22.6536 29.2678C22.6536 28.8941 22.6536 28.5203 22.6536 28.1466C22.6911 27.7354 22.7099 27.3243 22.7099 26.9132V25.6798C22.7099 25.3808 22.7286 25.1565 22.7661 25.007V19.1764ZM35.0292 27.3056C34.9917 26.9319 34.973 26.5955 34.973 26.2965C34.973 25.9601 34.9542 25.6424 34.9167 25.3434C34.8792 24.7828 34.8229 24.3156 34.7479 23.9418C34.7479 23.8671 34.7292 23.7923 34.6917 23.7176C34.6917 23.6428 34.6917 23.5868 34.6917 23.5494V23.3812L34.6354 23.4373V23.5494C34.6354 23.5868 34.6167 23.6428 34.5792 23.7176C34.5792 23.7923 34.5792 23.8671 34.5792 23.9418C34.5042 24.3156 34.4479 24.7828 34.4104 25.3434C34.3729 25.6424 34.3542 25.9601 34.3542 26.2965C34.3542 26.5955 34.3354 26.9319 34.2979 27.3056V27.8663C34.2979 27.9784 34.2792 28.0905 34.2417 28.2026C34.2417 28.2774 34.2417 28.3521 34.2417 28.4269V30.7815C34.2417 30.8937 34.2604 30.9871 34.2979 31.0619V31.9028C34.2979 32.0897 34.2979 32.2579 34.2979 32.4074C34.3354 32.5569 34.3542 32.7251 34.3542 32.9119C34.3542 33.0988 34.3542 33.267 34.3542 33.4165C34.3917 33.566 34.4104 33.7155 34.4104 33.865C34.4479 34.0145 34.4667 34.164 34.4667 34.3135C34.4667 34.4257 34.4854 34.5378 34.5229 34.6499C34.5229 34.762 34.5229 34.8742 34.5229 34.9863C34.5604 35.0984 34.5792 35.1919 34.5792 35.2666C34.5792 35.3414 34.5792 35.4161 34.5792 35.4909C34.6167 35.5656 34.6354 35.6217 34.6354 35.659V35.7712C34.6354 35.8086 34.6542 35.8272 34.6917 35.8272V35.659C34.6917 35.6217 34.6917 35.5656 34.6917 35.4909C34.7292 35.4161 34.7479 35.3414 34.7479 35.2666C34.7479 35.1919 34.7479 35.0984 34.7479 34.9863C34.7854 34.8742 34.8042 34.762 34.8042 34.6499C34.8417 34.5378 34.8604 34.4257 34.8604 34.3135C34.8604 34.164 34.8792 34.0145 34.9167 33.865C34.9167 33.7155 34.9167 33.566 34.9167 33.4165C34.9542 33.267 34.973 33.0988 34.973 32.9119C34.973 32.7251 34.973 32.5569 34.973 32.4074C35.0105 32.2579 35.0292 32.0897 35.0292 31.9028V31.3422C35.0292 31.1927 35.048 31.0992 35.0855 31.0619V28.4269C35.0855 28.3521 35.0667 28.2774 35.0292 28.2026C35.0292 28.0905 35.0292 27.9784 35.0292 27.8663V27.3056Z" fill="#F4EDE8"/>
<path d="M57.7149 21.8675C58.3524 21.8675 58.8774 21.9983 59.2899 22.2599C58.8774 22.5216 58.5212 22.8766 58.2211 23.3251C57.9586 23.7736 57.7899 24.2595 57.7149 24.7828V33.2483C57.6774 34.4444 57.4148 35.5656 56.9273 36.6121C56.4773 37.6213 55.8585 38.5183 55.071 39.3032C54.2835 40.0507 53.3647 40.6487 52.3146 41.0972C51.2646 41.5457 50.1395 41.77 48.9394 41.77C47.7394 41.77 46.6143 41.5457 45.5643 41.0972C44.5142 40.6487 43.5954 40.0507 42.8079 39.3032C42.0204 38.5183 41.3828 37.6213 40.8953 36.6121C40.4453 35.5656 40.2015 34.4444 40.164 33.2483V24.7828C40.0515 23.6241 39.5265 22.7832 38.5889 22.2599C39.0015 21.9983 39.5265 21.8675 40.164 21.8675V11.0473C40.2015 9.88862 40.4453 8.78604 40.8953 7.73953C41.3828 6.69301 42.0204 5.796 42.8079 5.04849C43.5954 4.2636 44.5142 3.64691 45.5643 3.1984C46.6143 2.7499 47.7394 2.52564 48.9394 2.52564C50.1395 2.52564 51.2646 2.7499 52.3146 3.1984C53.3647 3.64691 54.2835 4.2636 55.071 5.04849C55.8585 5.796 56.4773 6.69301 56.9273 7.73953C57.4148 8.78604 57.6774 9.88862 57.7149 11.0473V21.8675ZM43.2017 19.8492C43.2017 19.6623 43.1829 19.4941 43.1454 19.3446C43.1454 19.1578 43.1454 18.9709 43.1454 18.784V17.7188C43.1079 17.0087 43.0892 16.3359 43.0892 15.7005C43.0892 15.0651 43.0704 14.4671 43.0329 13.9065C42.9954 13.6449 42.9767 13.3832 42.9767 13.1216C42.9767 12.86 42.9579 12.617 42.9204 12.3928C42.9204 12.1685 42.9017 11.963 42.8642 11.7761C42.8642 11.5892 42.8642 11.421 42.8642 11.2715C42.8642 11.0846 42.8454 10.9351 42.8079 10.823C42.8079 10.6735 42.8079 10.5614 42.8079 10.4866V10.2063C42.7704 10.2063 42.7516 10.225 42.7516 10.2624V10.4866C42.7516 10.5614 42.7329 10.6735 42.6954 10.823C42.6954 10.9351 42.6954 11.0846 42.6954 11.2715C42.6954 11.421 42.6766 11.5892 42.6391 11.7761C42.6391 11.963 42.6391 12.1685 42.6391 12.3928C42.6016 12.617 42.5829 12.86 42.5829 13.1216C42.5829 13.3832 42.5641 13.6449 42.5266 13.9065C42.4891 14.4671 42.4704 15.0651 42.4704 15.7005C42.4704 16.3359 42.4516 17.0087 42.4141 17.7188V18.784C42.4141 18.9709 42.3954 19.1578 42.3579 19.3446C42.3579 19.4941 42.3579 19.6623 42.3579 19.8492V24.2782C42.3579 24.5398 42.3766 24.7267 42.4141 24.8388V26.4647C42.4141 26.8011 42.4141 27.1374 42.4141 27.4738C42.4516 27.8102 42.4704 28.1279 42.4704 28.4269C42.4704 28.7633 42.4704 29.081 42.4704 29.38C42.5079 29.6416 42.5266 29.9219 42.5266 30.2209C42.5641 30.5199 42.5829 30.8002 42.5829 31.0619C42.5829 31.2861 42.6016 31.5104 42.6391 31.7346C42.6391 31.9589 42.6391 32.1644 42.6391 32.3513C42.6766 32.5382 42.6954 32.7251 42.6954 32.9119C42.6954 33.0988 42.6954 33.267 42.6954 33.4165C42.7329 33.5286 42.7516 33.6221 42.7516 33.6968V33.865C42.7516 33.9024 42.7704 33.9211 42.8079 33.9211V33.6968C42.8079 33.6221 42.8079 33.5286 42.8079 33.4165C42.8454 33.267 42.8642 33.0988 42.8642 32.9119C42.8642 32.7251 42.8642 32.5382 42.8642 32.3513C42.9017 32.1644 42.9204 31.9589 42.9204 31.7346C42.9579 31.5104 42.9767 31.2861 42.9767 31.0619C42.9767 30.8002 42.9954 30.5199 43.0329 30.2209C43.0329 29.9219 43.0329 29.6416 43.0329 29.38C43.0704 29.081 43.0892 28.7633 43.0892 28.4269C43.0892 28.1279 43.0892 27.8102 43.0892 27.4738C43.1267 27.1374 43.1454 26.8011 43.1454 26.4647V24.8388C43.1829 24.7267 43.2017 24.5398 43.2017 24.2782V19.8492ZM52.4834 11.2715C52.4834 10.7856 52.4646 10.1876 52.4271 9.47749C52.3896 8.76736 52.2584 8.0946 52.0333 7.45921C51.8083 6.82383 51.4521 6.28188 50.9645 5.83338C50.5145 5.3475 49.8395 5.10455 48.9394 5.10455C48.0394 5.10455 47.3456 5.3475 46.8581 5.83338C46.4081 6.28188 46.0706 6.82383 45.8455 7.45921C45.6205 8.0946 45.4893 8.76736 45.4518 9.47749C45.4143 10.1876 45.3955 10.7856 45.3955 11.2715V21.8675C46.0331 21.8675 46.5581 21.9983 46.9706 22.2599C46.0331 22.7832 45.508 23.6241 45.3955 24.7828V33.0241C45.3955 33.51 45.4143 34.108 45.4518 34.8181C45.4893 35.4909 45.6205 36.1636 45.8455 36.8364C46.0706 37.4718 46.4081 38.0137 46.8581 38.4622C47.3456 38.9107 48.0394 39.135 48.9394 39.135C49.8395 39.135 50.5145 38.9107 50.9645 38.4622C51.4521 38.0137 51.8083 37.4718 52.0333 36.8364C52.2584 36.1636 52.3896 35.4909 52.4271 34.8181C52.4646 34.108 52.4834 33.51 52.4834 33.0241V24.7828C52.4084 23.6615 51.8833 22.8206 50.9083 22.2599C51.3208 21.9983 51.8458 21.8675 52.4834 21.8675V11.2715ZM55.521 19.8492C55.521 19.6623 55.521 19.4941 55.521 19.3446C55.521 19.1578 55.5023 18.9709 55.4648 18.784V17.7188C55.4648 17.0087 55.446 16.3359 55.4085 15.7005C55.4085 15.0651 55.3898 14.4671 55.3522 13.9065C55.3147 13.6449 55.296 13.3832 55.296 13.1216C55.296 12.86 55.2772 12.617 55.2397 12.3928C55.2397 12.1685 55.221 11.963 55.1835 11.7761C55.1835 11.5892 55.1835 11.421 55.1835 11.2715C55.1835 11.0846 55.1647 10.9351 55.1272 10.823C55.1272 10.6735 55.1272 10.5614 55.1272 10.4866V10.2063C55.0897 10.2063 55.071 10.225 55.071 10.2624V10.4866C55.071 10.5614 55.071 10.6735 55.071 10.823C55.071 10.9351 55.0522 11.0846 55.0147 11.2715C55.0147 11.421 54.996 11.5892 54.9585 11.7761C54.9585 11.963 54.9585 12.1685 54.9585 12.3928C54.921 12.617 54.9022 12.86 54.9022 13.1216C54.9022 13.3832 54.8835 13.6449 54.846 13.9065C54.8085 14.4671 54.7897 15.0651 54.7897 15.7005C54.7897 16.3359 54.771 17.0087 54.7335 17.7188V19.8492C54.696 20.223 54.6772 20.5967 54.6772 20.9705C54.6772 21.3442 54.6772 21.718 54.6772 22.0917C54.6772 22.4655 54.6772 22.8392 54.6772 23.213C54.6772 23.5494 54.696 23.9044 54.7335 24.2782V26.4647C54.7335 26.8011 54.7335 27.1374 54.7335 27.4738C54.771 27.8102 54.7897 28.1279 54.7897 28.4269C54.7897 28.7633 54.7897 29.081 54.7897 29.38C54.8272 29.6416 54.846 29.9219 54.846 30.2209C54.8835 30.5199 54.9022 30.8002 54.9022 31.0619C54.9022 31.2861 54.921 31.5104 54.9585 31.7346C54.9585 31.9589 54.9585 32.1644 54.9585 32.3513C54.996 32.5382 55.0147 32.7251 55.0147 32.9119C55.0522 33.0988 55.071 33.267 55.071 33.4165C55.071 33.5286 55.071 33.6221 55.071 33.6968V33.865C55.071 33.9024 55.0897 33.9211 55.1272 33.9211V33.6968C55.1272 33.6221 55.1272 33.5286 55.1272 33.4165C55.1647 33.267 55.1835 33.0988 55.1835 32.9119C55.1835 32.7251 55.1835 32.5382 55.1835 32.3513C55.221 32.1644 55.2397 31.9589 55.2397 31.7346C55.2772 31.5104 55.296 31.2861 55.296 31.0619C55.296 30.8002 55.3147 30.5199 55.3522 30.2209C55.3522 29.9219 55.3522 29.6416 55.3522 29.38C55.3898 29.081 55.4085 28.7633 55.4085 28.4269C55.4085 28.1279 55.4085 27.8102 55.4085 27.4738C55.446 27.1374 55.4648 26.8011 55.4648 26.4647V25.3995C55.4648 25.3247 55.4648 25.2313 55.4648 25.1192C55.5023 25.007 55.521 24.9136 55.521 24.8388V19.8492Z" fill="#F4EDE8"/>
<path d="M78.5899 14.6353C78.5899 16.3172 78.1774 17.8309 77.3523 19.1764C76.5273 20.522 75.421 21.5685 74.0334 22.316C74.7085 22.8392 75.3272 23.4559 75.8898 24.1661C76.4523 24.8388 76.9211 25.5863 77.2961 26.4086C77.7086 27.2309 78.0274 28.0718 78.2524 28.9315C78.4774 29.7911 78.5899 30.632 78.5899 31.4543V35.0424C78.5524 36.2384 78.3086 37.3596 77.8586 38.4062C77.4086 39.4153 76.7898 40.3123 76.0023 41.0972C75.2147 41.8447 74.2959 42.4427 73.2459 42.8912C72.1958 43.3771 71.0708 43.62 69.8707 43.62H64.583C64.3205 43.62 64.0954 43.5266 63.9079 43.3397C63.7579 43.1528 63.6829 42.9286 63.6829 42.667C63.6829 42.9286 63.5892 43.1528 63.4017 43.3397C63.2141 43.5266 63.0079 43.62 62.7829 43.62H59.8015C59.8015 43.2837 59.8577 43.0407 59.9702 42.8912C60.1203 42.7417 60.2703 42.5735 60.4203 42.3867C60.5703 42.2371 60.7015 42.0129 60.814 41.7139C60.964 41.4149 61.039 40.9477 61.039 40.3123V24.6706C60.9265 23.5494 60.4015 22.7271 59.464 22.2039C59.9515 21.9049 60.4765 21.7554 61.039 21.7554V3.31053C61.039 2.67515 60.964 2.20795 60.814 1.90895C60.7015 1.60994 60.5703 1.38569 60.4203 1.23619C60.2703 1.04931 60.1203 0.881118 59.9702 0.731616C59.8577 0.582113 59.8015 0.339172 59.8015 0.00279236H62.7829C63.0079 0.00279236 63.2141 0.0962311 63.4017 0.283109C63.5892 0.432611 63.6829 0.638177 63.6829 0.899807C63.6829 0.301797 63.9829 0.00279236 64.583 0.00279236H69.8707C71.0708 0.00279236 72.1958 0.227046 73.2459 0.675553C74.2959 1.12406 75.2147 1.74076 76.0023 2.52564C76.7898 3.27315 77.4086 4.17017 77.8586 5.21668C78.3086 6.2632 78.5524 7.36577 78.5899 8.52442V14.6353ZM64.0767 18.784C64.0767 18.5224 64.0579 18.2794 64.0204 18.0552C64.0204 17.7935 64.0204 17.5506 64.0204 17.3264V15.8687C63.9829 14.8969 63.9642 13.9812 63.9642 13.1216C63.9642 12.262 63.9454 11.4584 63.9079 10.7109C63.8704 10.2998 63.8517 9.926 63.8517 9.58962C63.8517 9.25324 63.8329 8.93555 63.7954 8.63654C63.7954 8.33754 63.7767 8.05722 63.7392 7.79559C63.7392 7.49659 63.7392 7.25365 63.7392 7.06677C63.7392 6.84252 63.7204 6.63695 63.6829 6.45007C63.6829 6.2632 63.6829 6.11369 63.6829 6.00157V5.66519C63.6454 5.70256 63.6267 5.73994 63.6267 5.77731V6.00157C63.6267 6.11369 63.6079 6.2632 63.5704 6.45007C63.5704 6.63695 63.5704 6.84252 63.5704 7.06677C63.5704 7.25365 63.5517 7.49659 63.5142 7.79559C63.5142 8.05722 63.5142 8.33754 63.5142 8.63654C63.4767 8.93555 63.4579 9.25324 63.4579 9.58962C63.4579 9.926 63.4392 10.2998 63.4017 10.7109C63.3642 11.4584 63.3454 12.262 63.3454 13.1216C63.3454 13.9812 63.3267 14.8969 63.2892 15.8687V17.3264C63.2892 17.5506 63.2892 17.7935 63.2892 18.0552C63.2892 18.2794 63.2704 18.5224 63.2329 18.784V24.7828C63.2329 24.9323 63.2329 25.0631 63.2329 25.1752C63.2704 25.2873 63.2892 25.4182 63.2892 25.5677V27.6981C63.2892 28.1839 63.2892 28.6698 63.2892 29.1557C63.3267 29.6042 63.3454 30.034 63.3454 30.4452C63.3454 30.8563 63.3454 31.2674 63.3454 31.6786C63.3829 32.0897 63.4017 32.5008 63.4017 32.9119C63.4392 33.0988 63.4579 33.2857 63.4579 33.4726C63.4579 33.6221 63.4579 33.7903 63.4579 33.9772C63.4579 34.164 63.4579 34.3322 63.4579 34.4817C63.4954 34.6312 63.5142 34.7807 63.5142 34.9302C63.5142 35.2292 63.5142 35.5282 63.5142 35.8272C63.5517 36.0889 63.5704 36.3318 63.5704 36.5561C63.5704 36.7803 63.5704 36.9859 63.5704 37.1728C63.6079 37.3223 63.6267 37.4531 63.6267 37.5652V37.8455C63.6267 37.8829 63.6454 37.9203 63.6829 37.9576V37.5652C63.6829 37.4531 63.6829 37.3223 63.6829 37.1728C63.7204 36.9859 63.7392 36.7803 63.7392 36.5561C63.7392 36.3318 63.7392 36.0889 63.7392 35.8272C63.7767 35.5282 63.7954 35.2292 63.7954 34.9302C63.8329 34.7807 63.8517 34.6312 63.8517 34.4817C63.8517 34.3322 63.8517 34.164 63.8517 33.9772C63.8517 33.7903 63.8517 33.6221 63.8517 33.4726C63.8892 33.2857 63.9079 33.0988 63.9079 32.9119C63.9079 32.5008 63.9079 32.0897 63.9079 31.6786C63.9454 31.2674 63.9642 30.8563 63.9642 30.4452C63.9642 30.034 63.9642 29.6042 63.9642 29.1557C64.0017 28.6698 64.0204 28.1839 64.0204 27.6981V26.2965C64.0204 25.9601 64.0392 25.7172 64.0767 25.5677V18.784ZM75.6647 33.9211C75.6272 34.0332 75.6085 34.2201 75.6085 34.4817V35.4909C75.6085 35.6777 75.5897 35.8459 75.5522 35.9954C75.5522 36.1449 75.5522 36.2944 75.5522 36.4439C75.5522 36.5934 75.5335 36.7243 75.496 36.8364C75.496 36.9485 75.496 37.0606 75.496 37.1728V37.341C75.4585 37.3783 75.4397 37.4344 75.4397 37.5091V37.7895C75.4022 37.8268 75.3835 37.8642 75.3835 37.9016V38.0137C75.3835 38.0511 75.3647 38.0885 75.3272 38.1258C75.3272 38.1258 75.3272 38.1445 75.3272 38.1819C75.3272 38.2193 75.3085 38.2567 75.271 38.294H75.3272C75.3272 38.294 75.346 38.2567 75.3835 38.1819C75.3835 38.1819 75.4022 38.1445 75.4397 38.0698C75.4772 38.0324 75.496 37.995 75.496 37.9576C75.5335 37.9203 75.5522 37.8829 75.5522 37.8455C75.5897 37.8081 75.6085 37.7708 75.6085 37.7334C75.646 37.696 75.6647 37.64 75.6647 37.5652C75.7398 37.4905 75.7773 37.397 75.7773 37.2849C75.8523 37.1354 75.9273 36.8738 76.0023 36.5C76.0773 36.2757 76.1148 36.1262 76.1148 36.0515C76.1523 35.9767 76.171 35.902 76.171 35.8272C76.171 35.7151 76.1898 35.6217 76.2273 35.5469C76.2273 35.4722 76.2273 35.3974 76.2273 35.3227C76.2648 35.2105 76.2835 35.1171 76.2835 35.0424C76.321 34.9302 76.3398 34.762 76.3398 34.5378C76.3773 34.3509 76.396 34.164 76.396 33.9772C76.396 33.7903 76.4148 33.6034 76.4523 33.4165V31.0619C76.4523 30.875 76.4335 30.6881 76.396 30.5012C76.396 30.3144 76.3773 30.1275 76.3398 29.9406C76.3398 29.7163 76.321 29.5482 76.2835 29.436C76.2835 29.3613 76.2648 29.2865 76.2273 29.2118C76.2273 29.0996 76.2273 29.0062 76.2273 28.9315C76.1898 28.8567 76.171 28.782 76.171 28.7072C76.171 28.5951 76.1523 28.5016 76.1148 28.4269C76.1148 28.3521 76.096 28.2774 76.0585 28.2026C76.0585 28.1279 76.0585 28.0531 76.0585 27.9784C75.9835 27.7541 75.946 27.6233 75.946 27.5859C75.9085 27.4738 75.8523 27.343 75.7773 27.1935C75.7773 27.0814 75.7398 26.9879 75.6647 26.9132C75.6647 26.8011 75.6272 26.7076 75.5522 26.6329C75.4772 26.4834 75.421 26.3712 75.3835 26.2965C75.346 26.2591 75.3272 26.2217 75.3272 26.1844H75.271C75.271 26.1844 75.2897 26.2217 75.3272 26.2965C75.3272 26.3339 75.3272 26.3712 75.3272 26.4086C75.3647 26.4086 75.3835 26.4273 75.3835 26.4647C75.3835 26.5394 75.4022 26.6142 75.4397 26.6889V26.9692C75.4772 27.044 75.496 27.1374 75.496 27.2496C75.496 27.4364 75.5147 27.5673 75.5522 27.642V28.0344C75.5897 28.1839 75.6085 28.3334 75.6085 28.483C75.6085 28.6325 75.6085 28.8006 75.6085 28.9875V29.4921C75.6085 29.5668 75.6085 29.6603 75.6085 29.7724C75.646 29.8472 75.6647 29.9219 75.6647 29.9967V33.9211ZM73.3584 31.4543C73.3584 30.9684 73.3396 30.277 73.3021 29.38C73.2646 28.483 73.1334 27.5859 72.9084 26.6889C72.6834 25.7919 72.3271 25.0257 71.8396 24.3903C71.3895 23.7176 70.7145 23.3812 69.8145 23.3812H67.7894C67.3769 23.3812 67.0206 23.5307 66.7206 23.8297C66.4206 24.1287 66.2705 24.4838 66.2705 24.8949V39.4714C66.2705 39.8825 66.4206 40.2376 66.7206 40.5366C67.0206 40.7982 67.3769 40.9477 67.7894 40.9851H69.8145C70.7145 40.9851 71.3895 40.7608 71.8396 40.3123C72.3271 39.8264 72.6834 39.2658 72.9084 38.6304C73.1334 37.995 73.2646 37.3223 73.3021 36.6121C73.3396 35.902 73.3584 35.304 73.3584 34.8181V31.4543ZM73.3584 8.74867C73.3584 8.26279 73.3396 7.68347 73.3021 7.01071C73.2646 6.30057 73.1334 5.62781 72.9084 4.99243C72.6834 4.35704 72.3271 3.8151 71.8396 3.36659C71.3895 2.88071 70.7145 2.63777 69.8145 2.63777H67.7894C67.3769 2.63777 67.0206 2.78727 66.7206 3.08627C66.4206 3.38528 66.2705 3.74035 66.2705 4.15148V19.2325C66.2705 19.6436 66.4206 19.9987 66.7206 20.2977C67.0206 20.5967 67.3769 20.7462 67.7894 20.7462H69.8145C70.7145 20.7462 71.3895 20.522 71.8396 20.0735C72.3271 19.625 72.6834 19.083 72.9084 18.4476C73.1334 17.7749 73.2646 17.1021 73.3021 16.4293C73.3396 15.7192 73.3584 15.1212 73.3584 14.6353V8.74867ZM75.8898 16.149C75.9648 15.9248 76.0023 15.7753 76.0023 15.7005C76.0773 15.551 76.1148 15.4015 76.1148 15.252C76.1523 15.1773 76.171 15.1025 76.171 15.0278C76.171 14.9156 76.1898 14.8222 76.2273 14.7474C76.2273 14.6727 76.2273 14.5979 76.2273 14.5232C76.2648 14.4111 76.2835 14.2989 76.2835 14.1868C76.321 14.0747 76.3398 13.8878 76.3398 13.6262C76.3773 13.4393 76.396 13.2524 76.396 13.0655C76.396 12.8787 76.4148 12.6918 76.4523 12.5049V11.2715C76.4523 10.8604 76.4523 10.4679 76.4523 10.0942C76.4523 9.68306 76.4335 9.29061 76.396 8.91686C76.3585 8.80473 76.3398 8.71129 76.3398 8.63654C76.3398 8.52442 76.321 8.43098 76.2835 8.35623C76.2835 8.0946 76.2648 7.90772 76.2273 7.79559C76.1898 7.60871 76.1523 7.44052 76.1148 7.29102C76.1148 7.14152 76.096 6.99202 76.0585 6.84252C75.9835 6.61826 75.946 6.46876 75.946 6.39401C75.871 6.24451 75.8335 6.13238 75.8335 6.05763C75.7585 5.90813 75.7023 5.796 75.6647 5.72125C75.6647 5.60912 75.6272 5.51569 75.5522 5.44093C75.5147 5.32881 75.4585 5.19799 75.3835 5.04849L75.271 4.93636V4.99243C75.271 5.0298 75.271 5.04849 75.271 5.04849C75.3085 5.04849 75.3272 5.06718 75.3272 5.10455C75.3647 5.14193 75.3835 5.19799 75.3835 5.27274C75.3835 5.3475 75.4022 5.42225 75.4397 5.497V5.77731C75.4772 5.85206 75.496 5.96419 75.496 6.11369C75.496 6.18844 75.496 6.2632 75.496 6.33795C75.5335 6.37532 75.5522 6.43139 75.5522 6.50614V6.89858C75.5897 7.04808 75.6085 7.19758 75.6085 7.34709C75.6085 7.49659 75.6085 7.66478 75.6085 7.85166V8.41229C75.6085 8.48704 75.6085 8.58048 75.6085 8.69261C75.646 8.76736 75.6647 8.84211 75.6647 8.91686V13.0655C75.6272 13.1777 75.6085 13.3645 75.6085 13.6262V14.6914C75.6085 14.8783 75.5897 15.0464 75.5522 15.1959C75.5522 15.3455 75.5522 15.495 75.5522 15.6445C75.5522 15.794 75.5335 15.9435 75.496 16.093C75.496 16.2051 75.496 16.3172 75.496 16.4293C75.496 16.6162 75.4772 16.7283 75.4397 16.7657V17.1021C75.4022 17.1021 75.3835 17.1395 75.3835 17.2142V17.3264C75.3835 17.3637 75.3647 17.4011 75.3272 17.4385C75.3272 17.4385 75.3272 17.4572 75.3272 17.4945C75.3272 17.5319 75.3085 17.5693 75.271 17.6067L75.3835 17.4945C75.3835 17.4572 75.3835 17.4385 75.3835 17.4385C75.421 17.4011 75.4397 17.3637 75.4397 17.3264C75.4772 17.3264 75.496 17.289 75.496 17.2142C75.5335 17.2142 75.5522 17.1769 75.5522 17.1021C75.5897 17.1021 75.6085 17.0647 75.6085 16.99C75.646 16.9526 75.6647 16.8965 75.6647 16.8218C75.7398 16.747 75.7773 16.6536 75.7773 16.5415C75.8523 16.3172 75.8898 16.1864 75.8898 16.149Z" fill="#F4EDE8"/>
<path d="M99.867 38.4062C100.017 39.0415 100.186 39.5087 100.373 39.8077C100.561 40.1067 100.748 40.3497 100.936 40.5366C101.123 40.7234 101.292 40.8916 101.442 41.0411C101.592 41.1906 101.705 41.4336 101.78 41.77H98.7982C98.5357 41.77 98.292 41.6765 98.0669 41.4896C97.8794 41.3028 97.7669 41.0785 97.7294 40.8169C97.7669 41.0785 97.7107 41.3028 97.5607 41.4896C97.4107 41.6765 97.2232 41.77 96.9981 41.77H94.0167C93.9417 41.4336 93.9605 41.1906 94.073 41.0411C94.1855 40.8916 94.298 40.7421 94.4105 40.5926C94.523 40.4057 94.6168 40.1628 94.6918 39.8638C94.7668 39.5274 94.748 39.0229 94.6355 38.3501V38.294L93.398 31.9589C93.323 31.5851 93.1167 31.2674 92.7792 31.0058C92.4417 30.7068 92.0667 30.5573 91.6541 30.5573H87.7727C87.3602 30.5573 86.9852 30.7068 86.6476 31.0058C86.3101 31.2674 86.1039 31.5851 86.0289 31.9589L84.8476 38.294V38.3501C84.7351 39.0229 84.6976 39.5274 84.7351 39.8638C84.8101 40.1628 84.9038 40.4057 85.0163 40.5926C85.1663 40.7421 85.2788 40.8916 85.3538 41.0411C85.4663 41.1906 85.5038 41.4336 85.4663 41.77H82.4849C82.2224 41.77 82.0162 41.6765 81.8662 41.4896C81.7162 41.3028 81.6599 41.0785 81.6974 40.8169C81.6599 41.0785 81.5474 41.3028 81.3599 41.4896C81.1724 41.6765 80.9474 41.77 80.6849 41.77H77.7035C77.741 41.4336 77.8347 41.1906 77.9847 41.0411C78.1347 40.8916 78.3035 40.7234 78.491 40.5366C78.6785 40.3497 78.866 40.1067 79.0535 39.8077C79.241 39.5087 79.4098 39.0415 79.5598 38.4062L82.0912 24.7828C82.1662 24.2595 82.1099 23.7736 81.9224 23.3251C81.7349 22.8766 81.4349 22.5216 81.0224 22.2599C81.6224 21.9983 82.1662 21.8675 82.6537 21.8675L85.6914 5.88944C85.8039 5.25406 85.8226 4.78686 85.7476 4.48786C85.6726 4.15148 85.5788 3.90854 85.4663 3.75904C85.3538 3.57216 85.2413 3.40397 85.1288 3.25447C85.0163 3.10496 84.9976 2.86202 85.0726 2.52564H88.8415C89.404 2.60039 89.6853 2.91809 89.6853 3.47872C89.6853 3.21709 89.7603 3.01152 89.9103 2.86202C90.0978 2.67514 90.3041 2.56302 90.5291 2.52564H94.3543C94.4293 2.86202 94.4105 3.10496 94.298 3.25447C94.223 3.40397 94.1292 3.57216 94.0167 3.75904C93.9042 3.90854 93.8105 4.15148 93.7355 4.48786C93.6605 4.78686 93.6792 5.25406 93.7917 5.88944L96.7731 21.8675C97.0732 21.8675 97.3544 21.9049 97.6169 21.9796C97.8794 22.0544 98.1419 22.1478 98.4045 22.2599C97.5794 22.7832 97.2232 23.6241 97.3357 24.7828L99.867 38.4062ZM86.3664 18.3355C86.4414 18.1112 86.4789 17.9057 86.4789 17.7188C86.5164 17.4945 86.5539 17.289 86.5914 17.1021C86.7789 16.2425 86.9289 15.4389 87.0414 14.6914C87.1539 13.9065 87.2664 13.1964 87.3789 12.561C87.4539 12.262 87.4914 11.963 87.4914 11.664C87.5289 11.365 87.5664 11.066 87.6039 10.7669C87.6414 10.5053 87.6789 10.2624 87.7164 10.0381C87.754 9.81387 87.7915 9.60831 87.829 9.42143C87.8665 9.23455 87.8852 9.06636 87.8852 8.91686C87.8852 8.72998 87.904 8.58048 87.9415 8.46835V8.2441L87.8852 8.46835C87.8477 8.58048 87.8102 8.71129 87.7727 8.8608C87.7352 9.0103 87.6977 9.17849 87.6602 9.36537C87.5852 9.55224 87.5289 9.7765 87.4914 10.0381C87.4539 10.2624 87.3977 10.4866 87.3227 10.7109C87.2477 11.0099 87.1727 11.3089 87.0977 11.6079C87.0602 11.9069 87.0039 12.2059 86.9289 12.5049C86.7414 13.1403 86.5539 13.8317 86.3664 14.5793C86.2164 15.2894 86.0476 16.0743 85.8601 16.9339C85.8601 17.1582 85.8414 17.3637 85.8039 17.5506C85.7664 17.7375 85.7101 17.9431 85.6351 18.1673C85.5976 18.3916 85.5601 18.6158 85.5226 18.8401C85.4851 19.0269 85.4476 19.2325 85.4101 19.4568C85.2976 19.8679 85.1851 20.2977 85.0726 20.7462C84.9976 21.1947 84.9226 21.6432 84.8476 22.0917C84.7726 22.5029 84.6788 22.9327 84.5663 23.3812C84.4913 23.8297 84.4163 24.2595 84.3413 24.6706C84.3038 24.7828 84.285 24.8949 84.285 25.007C84.285 25.0818 84.2663 25.1752 84.2288 25.2873C84.1538 25.5863 84.1163 25.8106 84.1163 25.9601C84.0038 26.3339 83.9288 26.745 83.8913 27.1935C83.8163 27.6046 83.7413 28.0158 83.6663 28.4269C83.5912 28.838 83.535 29.2118 83.4975 29.5482C83.385 30.4078 83.2725 31.1179 83.16 31.6786C83.085 31.9776 83.0287 32.2766 82.9912 32.5756C82.9537 32.8746 82.9162 33.1736 82.8787 33.4726C82.8037 33.7342 82.7475 33.9958 82.71 34.2575C82.71 34.4817 82.6912 34.6873 82.6537 34.8742C82.6162 35.061 82.5975 35.2292 82.5975 35.3787C82.5975 35.5282 82.5787 35.6591 82.5412 35.7712C82.5412 35.8459 82.5225 35.902 82.4849 35.9394C82.4849 35.9394 82.4849 35.9581 82.4849 35.9954V36.0515C82.5225 36.0515 82.5412 36.0328 82.5412 35.9954C82.5412 35.9207 82.56 35.8459 82.5975 35.7712C82.635 35.6964 82.6537 35.5843 82.6537 35.4348C82.6912 35.2479 82.7475 35.061 82.8225 34.8742C82.8975 34.6873 82.9537 34.4817 82.9912 34.2575C83.0662 34.0332 83.1412 33.7903 83.2162 33.5286C83.2912 33.267 83.3475 32.9867 83.385 32.6877C83.46 32.3887 83.5162 32.0897 83.5537 31.7907C83.6287 31.4917 83.7038 31.174 83.7788 30.8376C83.8913 30.4639 83.985 30.0901 84.06 29.7163C84.135 29.3426 84.21 28.9501 84.285 28.539C84.3975 28.1279 84.51 27.7168 84.6226 27.3056C84.66 27.1187 84.6976 26.9319 84.7351 26.745C84.7726 26.5207 84.8101 26.3152 84.8476 26.1283L85.0163 25.4555C85.0538 25.3434 85.0726 25.2313 85.0726 25.1192C85.0726 25.007 85.0913 24.8949 85.1288 24.7828C85.2038 24.3716 85.2976 23.9605 85.4101 23.5494C85.5226 23.1009 85.6163 22.6524 85.6914 22.2039C85.7664 21.7927 85.8414 21.3629 85.9164 20.9144C85.9914 20.4659 86.0664 20.0361 86.1414 19.6249C86.1789 19.4007 86.2164 19.1764 86.2539 18.9522C86.2914 18.7279 86.3289 18.5224 86.3664 18.3355ZM91.1479 27.9223C91.5604 27.8849 91.8791 27.7354 92.1042 27.4738C92.3667 27.1748 92.4604 26.8197 92.3854 26.4086L92.0479 24.7828C91.8979 24.2595 91.6354 23.7736 91.2604 23.3251C90.9229 22.8766 90.5103 22.5216 90.0228 22.2599C90.4728 21.9983 90.9604 21.8675 91.4854 21.8675L89.6853 12.2807L87.8852 21.8675C88.3727 21.8675 88.879 21.9983 89.404 22.2599C88.879 22.5216 88.429 22.8766 88.054 23.3251C87.7164 23.7736 87.4914 24.2595 87.3789 24.7828L87.0977 26.4086C87.0227 26.8197 87.0977 27.1748 87.3227 27.4738C87.5477 27.7354 87.8477 27.8849 88.2227 27.9223H91.1479ZM96.8294 35.7712C96.8294 35.8459 96.8294 35.902 96.8294 35.9394C96.8669 35.9394 96.8856 35.9581 96.8856 35.9954V35.7712C96.8481 35.6591 96.8294 35.5282 96.8294 35.3787C96.8294 35.2292 96.8106 35.061 96.7731 34.8742C96.7356 34.6873 96.6981 34.4817 96.6606 34.2575C96.6606 33.9958 96.6231 33.7342 96.5481 33.4726C96.5106 33.1736 96.4731 32.8746 96.4356 32.5756C96.3981 32.2766 96.3419 31.9776 96.2669 31.6786C96.1544 31.1179 96.0418 30.4078 95.9293 29.5482C95.8543 29.2118 95.7793 28.838 95.7043 28.4269C95.6668 28.0158 95.6106 27.6046 95.5356 27.1935C95.4606 26.9692 95.4043 26.7637 95.3668 26.5768C95.3668 26.3899 95.3293 26.1844 95.2543 25.9601C95.2543 25.8106 95.2168 25.5863 95.1418 25.2873C95.1418 25.1752 95.1231 25.0818 95.0855 25.007C95.0855 24.8949 95.0855 24.7828 95.0855 24.6706C95.0106 24.2595 94.9168 23.8297 94.8043 23.3812C94.7293 22.9327 94.6543 22.5029 94.5793 22.0917C94.5043 21.6432 94.4105 21.1947 94.298 20.7462C94.223 20.2977 94.1292 19.8679 94.0167 19.4568C93.9792 19.2325 93.9417 19.0269 93.9042 18.8401C93.8667 18.6158 93.8292 18.3916 93.7917 18.1673C93.7167 17.9431 93.6605 17.7375 93.623 17.5506C93.5855 17.3637 93.548 17.1582 93.5105 16.9339C93.323 16.0743 93.1355 15.2894 92.948 14.5793C92.7979 13.8317 92.6667 13.1403 92.5542 12.5049C92.4792 12.2059 92.4042 11.9069 92.3292 11.6079C92.2542 11.3089 92.1792 11.0099 92.1042 10.7109C92.0292 10.4866 91.9541 10.2624 91.8791 10.0381C91.8416 9.7765 91.7854 9.55224 91.7104 9.36537C91.6729 9.17849 91.6354 9.0103 91.5979 8.8608C91.5604 8.71129 91.5229 8.58048 91.4854 8.46835L91.4291 8.2441V8.46835C91.4666 8.65523 91.5229 8.97292 91.5979 9.42143C91.5979 9.60831 91.6166 9.81387 91.6541 10.0381C91.6916 10.2624 91.7291 10.5053 91.7666 10.7669C91.8041 11.066 91.8416 11.365 91.8791 11.664C91.9166 11.963 91.9729 12.262 92.0479 12.561C92.1604 13.1964 92.2729 13.9065 92.3854 14.6914C92.4979 15.4389 92.6292 16.2425 92.7792 17.1021C92.8167 17.289 92.8354 17.4945 92.8354 17.7188C92.8729 17.9057 92.9292 18.1112 93.0042 18.3355C93.0417 18.5224 93.0792 18.7279 93.1167 18.9522C93.1542 19.1764 93.1917 19.4007 93.2292 19.6249C93.3042 20.0361 93.3792 20.4659 93.4542 20.9144C93.5667 21.3629 93.6605 21.7927 93.7355 22.2039C93.8105 22.6524 93.9042 23.1009 94.0167 23.5494C94.1292 23.9605 94.223 24.3716 94.298 24.7828C94.3355 24.8949 94.3543 25.007 94.3543 25.1192C94.3543 25.2313 94.373 25.3434 94.4105 25.4555L94.5793 26.1283C94.6168 26.3152 94.6543 26.5207 94.6918 26.745C94.7293 26.9319 94.7668 27.1187 94.8043 27.3056C94.9168 27.7168 95.0106 28.1279 95.0855 28.539C95.1606 28.9501 95.2356 29.3426 95.3106 29.7163C95.3856 30.0901 95.4606 30.4639 95.5356 30.8376C95.6481 31.174 95.7418 31.4917 95.8168 31.7907C95.8918 32.0897 95.9669 32.3887 96.0418 32.6877C96.1169 32.9867 96.1919 33.267 96.2669 33.5286C96.3794 34.0519 96.4919 34.5004 96.6044 34.8742C96.6794 35.061 96.7169 35.2479 96.7169 35.4348C96.7544 35.5843 96.7919 35.6964 96.8294 35.7712Z" fill="#F4EDE8"/>
<path d="M123.469 44.1246C123.882 44.1994 124.163 44.3302 124.313 44.5171C124.5 44.7039 124.632 44.8908 124.707 45.0777C124.782 45.3019 124.819 45.5449 124.819 45.8065C123.619 45.8065 122.494 45.657 121.444 45.358C120.394 45.059 119.456 44.5731 118.631 43.9004C117.844 43.2276 117.206 42.3493 116.719 41.2654C116.269 40.1815 116.044 38.8547 116.044 37.2849V29.6042C116.044 29.1183 116.025 28.5203 115.987 27.8102C115.95 27.1001 115.819 26.4273 115.594 25.7919C115.369 25.1565 115.012 24.6146 114.525 24.1661C114.075 23.6802 113.4 23.4373 112.5 23.4373H110.193C109.856 23.512 109.556 23.6989 109.293 23.9979C109.068 24.2595 108.956 24.5772 108.956 24.951V38.3501C108.956 39.0229 109.012 39.5274 109.125 39.8638C109.275 40.1628 109.425 40.4057 109.575 40.5926C109.725 40.7421 109.856 40.8916 109.968 41.0411C110.118 41.1906 110.193 41.4336 110.193 41.77H107.212C106.987 41.77 106.781 41.6765 106.593 41.4896C106.406 41.3028 106.312 41.0972 106.312 40.8729C106.312 41.0972 106.218 41.3028 106.031 41.4896C105.881 41.6765 105.674 41.77 105.412 41.77H102.487C102.487 41.4336 102.543 41.1906 102.655 41.0411C102.805 40.8916 102.956 40.7421 103.106 40.5926C103.256 40.4057 103.387 40.1628 103.499 39.8638C103.649 39.5648 103.724 39.0976 103.724 38.4622V24.7828C103.612 23.6241 103.087 22.7832 102.149 22.2599C102.562 21.9983 103.087 21.8675 103.724 21.8675V5.83338C103.724 5.19799 103.649 4.7308 103.499 4.4318C103.387 4.13279 103.256 3.90854 103.106 3.75904C102.956 3.57216 102.805 3.40397 102.655 3.25447C102.543 3.10496 102.487 2.86202 102.487 2.52564H105.468C105.693 2.52564 105.899 2.61908 106.087 2.80596C106.274 2.95546 106.368 3.16103 106.368 3.42266C106.368 2.82465 106.668 2.52564 107.268 2.52564H112.556C113.756 2.52564 114.881 2.7499 115.931 3.1984C116.981 3.64691 117.9 4.2636 118.688 5.04849C119.475 5.796 120.094 6.69301 120.544 7.73953C120.994 8.78604 121.238 9.88862 121.275 11.0473V14.6914C121.275 16.2612 120.9 17.7001 120.15 19.0083C119.4 20.3164 118.388 21.3629 117.112 22.1478C118.388 22.8953 119.4 23.9418 120.15 25.2873C120.9 26.5955 121.275 28.0344 121.275 29.6042V37.0606C121.275 37.8455 121.275 38.6491 121.275 39.4714C121.313 40.2562 121.406 40.9851 121.556 41.6578C121.706 42.2932 121.931 42.8352 122.231 43.2837C122.531 43.7322 122.944 44.0125 123.469 44.1246ZM118.35 13.7383C118.312 13.8131 118.294 13.9065 118.294 14.0186V15.3081C118.256 15.4576 118.237 15.6071 118.237 15.7566C118.237 15.8687 118.237 15.9808 118.237 16.093C118.237 16.1677 118.219 16.2238 118.181 16.2612C118.181 16.2985 118.181 16.3546 118.181 16.4293V16.7657C118.144 16.8405 118.125 16.9339 118.125 17.046C118.125 17.1208 118.106 17.1955 118.069 17.2703C118.069 17.345 118.05 17.4011 118.012 17.4385V17.5506L117.956 17.6627C117.956 17.6627 117.994 17.644 118.069 17.6067V17.5506L118.125 17.4945C118.162 17.4572 118.181 17.4385 118.181 17.4385C118.181 17.4011 118.2 17.3637 118.237 17.3264C118.275 17.2516 118.312 17.1769 118.35 17.1021C118.387 16.99 118.425 16.8965 118.463 16.8218C118.5 16.747 118.519 16.7097 118.519 16.7097C118.519 16.6723 118.537 16.6162 118.575 16.5415C118.613 16.4667 118.631 16.4107 118.631 16.3733C118.631 16.2985 118.65 16.2238 118.688 16.149C118.725 16.0743 118.744 16.0182 118.744 15.9808C118.744 15.9435 118.763 15.8874 118.8 15.8126C118.8 15.7379 118.8 15.6818 118.8 15.6445C118.838 15.5697 118.856 15.495 118.856 15.4202C118.894 15.2707 118.913 15.1212 118.913 14.9717C118.95 14.8222 118.988 14.6727 119.025 14.5232C119.063 14.4111 119.081 14.2429 119.081 14.0186C119.081 13.9439 119.081 13.8691 119.081 13.7944C119.119 13.7196 119.138 13.6449 119.138 13.5701V11.6079C119.138 11.3836 119.119 11.2155 119.081 11.1033V10.8791C119.081 10.8043 119.063 10.7669 119.025 10.7669C119.025 10.7296 119.025 10.6735 119.025 10.5988C119.025 10.4119 118.988 10.1316 118.913 9.75781C118.875 9.68306 118.856 9.60831 118.856 9.53355C118.856 9.4588 118.838 9.38405 118.8 9.3093C118.8 9.27193 118.781 9.25324 118.744 9.25324C118.744 9.21586 118.744 9.17849 118.744 9.14111C118.744 9.10374 118.725 9.08505 118.688 9.08505C118.688 9.04767 118.688 9.0103 118.688 8.97292C118.65 8.89817 118.631 8.84211 118.631 8.80473C118.631 8.76735 118.613 8.71129 118.575 8.63654C118.537 8.56179 118.519 8.50573 118.519 8.46835C118.519 8.43098 118.5 8.37491 118.463 8.30016C118.425 8.26279 118.406 8.22541 118.406 8.18804C118.406 8.15066 118.387 8.11329 118.35 8.07591C118.275 7.92641 118.237 7.85166 118.237 7.85166C118.2 7.81428 118.181 7.79559 118.181 7.79559C118.181 7.75822 118.162 7.72084 118.125 7.68347C118.087 7.64609 118.069 7.60872 118.069 7.57134C118.031 7.53396 118.012 7.49659 118.012 7.45921H117.956C117.956 7.45921 117.975 7.49659 118.012 7.57134V7.68347C118.05 7.72084 118.069 7.79559 118.069 7.90772C118.069 7.94509 118.069 7.98247 118.069 8.01984C118.106 8.01984 118.125 8.05722 118.125 8.13197C118.125 8.2441 118.144 8.33754 118.181 8.41229V8.69261C118.181 8.76736 118.181 8.82342 118.181 8.8608C118.219 8.89817 118.237 8.95423 118.237 9.02898C118.237 9.36536 118.256 9.62699 118.294 9.81387V10.7109C118.331 10.8978 118.35 11.1968 118.35 11.6079V13.7383ZM106.762 19.5128C106.762 19.3259 106.743 19.1204 106.706 18.8961C106.706 18.6719 106.706 18.4476 106.706 18.2234V16.99C106.668 16.1677 106.649 15.3828 106.649 14.6353C106.649 13.8878 106.631 13.1777 106.593 12.5049C106.556 12.2059 106.537 11.9069 106.537 11.6079C106.537 11.3089 106.518 11.0286 106.481 10.7669C106.481 10.4679 106.462 10.2063 106.424 9.98206C106.424 9.75781 106.424 9.55224 106.424 9.36537C106.424 9.17849 106.406 9.0103 106.368 8.8608C106.368 8.71129 106.368 8.58048 106.368 8.46835V8.18804C106.331 8.18804 106.312 8.20672 106.312 8.2441V8.46835C106.312 8.58048 106.293 8.71129 106.256 8.8608C106.256 9.0103 106.256 9.17849 106.256 9.36537C106.256 9.55224 106.237 9.75781 106.199 9.98206C106.199 10.2063 106.199 10.4679 106.199 10.7669C106.162 11.0286 106.143 11.3089 106.143 11.6079C106.143 11.9069 106.124 12.2059 106.087 12.5049C106.049 13.1777 106.031 13.8878 106.031 14.6353C106.031 15.3828 106.012 16.1677 105.974 16.99V18.2234C105.974 18.4476 105.956 18.6719 105.918 18.8961C105.918 19.1204 105.918 19.3259 105.918 19.5128V24.7267C105.918 25.0257 105.937 25.25 105.974 25.3995V27.2496C105.974 27.6607 105.974 28.0718 105.974 28.483C106.012 28.8567 106.031 29.2305 106.031 29.6042C106.031 30.0153 106.031 30.3891 106.031 30.7255C106.068 31.0619 106.087 31.3982 106.087 31.7346C106.124 32.071 106.143 32.3887 106.143 32.6877C106.143 32.9493 106.162 33.2296 106.199 33.5286C106.199 33.7903 106.199 34.0332 106.199 34.2575C106.237 34.4817 106.256 34.6873 106.256 34.8742C106.256 35.061 106.256 35.2479 106.256 35.4348C106.293 35.5843 106.312 35.6964 106.312 35.7712V36.0515C106.312 36.0889 106.331 36.1076 106.368 36.1076V35.7712C106.368 35.6964 106.368 35.5843 106.368 35.4348C106.406 35.2479 106.424 35.061 106.424 34.8742C106.424 34.6873 106.424 34.4817 106.424 34.2575C106.462 34.0332 106.481 33.7903 106.481 33.5286C106.518 33.2296 106.537 32.9493 106.537 32.6877C106.537 32.3887 106.556 32.071 106.593 31.7346C106.593 31.3982 106.593 31.0619 106.593 30.7255C106.631 30.3891 106.649 30.0153 106.649 29.6042C106.649 29.2305 106.649 28.8567 106.649 28.483C106.687 28.0718 106.706 27.6607 106.706 27.2496V26.0162C106.706 25.7172 106.724 25.5116 106.762 25.3995V19.5128ZM116.044 11.2715C116.044 10.7856 116.025 10.1876 115.987 9.47749C115.95 8.76736 115.819 8.0946 115.594 7.45921C115.369 6.82383 115.012 6.28188 114.525 5.83338C114.075 5.3475 113.4 5.10455 112.5 5.10455H110.475C110.062 5.14193 109.706 5.31012 109.406 5.60912C109.106 5.90813 108.956 6.2632 108.956 6.67433V19.2886C108.956 19.6997 109.106 20.0548 109.406 20.3538C109.706 20.6528 110.062 20.8023 110.475 20.8023H112.5C113.4 20.8023 114.075 20.578 114.525 20.1295C115.012 19.681 115.369 19.1391 115.594 18.5037C115.819 17.8309 115.95 17.1582 115.987 16.4854C116.025 15.7753 116.044 15.1773 116.044 14.6914V11.2715ZM119.813 41.9942C119.813 41.9942 119.794 41.9755 119.756 41.9381L119.7 41.8821C119.663 41.8073 119.625 41.7326 119.588 41.6578C119.588 41.5831 119.55 41.5083 119.475 41.4336C119.438 41.3214 119.4 41.2093 119.363 41.0972C119.325 40.9477 119.288 40.7795 119.25 40.5926C119.175 40.2189 119.138 39.8638 119.138 39.5274C119.1 39.3405 119.081 39.1537 119.081 38.9668C119.081 38.7425 119.081 38.4996 119.081 38.238V35.2666C119.081 35.005 119.081 34.7434 119.081 34.4817C119.081 34.2201 119.1 33.9398 119.138 33.6408C119.138 33.3791 119.138 33.1175 119.138 32.8559C119.138 32.5943 119.119 32.3326 119.081 32.071V31.2861C119.081 30.9124 119.063 30.6507 119.025 30.5012C119.025 30.2396 119.006 29.9967 118.969 29.7724C118.969 29.5108 118.95 29.2678 118.913 29.0436C118.838 28.5203 118.763 28.0718 118.688 27.6981C118.65 27.5112 118.613 27.343 118.575 27.1935C118.537 27.0066 118.481 26.8197 118.406 26.6329C118.331 26.446 118.275 26.2965 118.237 26.1844C118.2 26.0722 118.144 25.9601 118.069 25.848C117.994 25.7358 117.937 25.6424 117.9 25.5677C117.862 25.4929 117.825 25.4182 117.787 25.3434C117.75 25.3434 117.712 25.3247 117.675 25.2873C117.637 25.2873 117.619 25.2687 117.619 25.2313L117.675 25.2873C117.675 25.3247 117.694 25.3621 117.731 25.3995C117.731 25.4368 117.731 25.4742 117.731 25.5116C117.769 25.5116 117.787 25.549 117.787 25.6237C117.825 25.6611 117.844 25.6985 117.844 25.7358C117.844 25.7732 117.862 25.8293 117.9 25.904C117.937 26.0535 117.994 26.3152 118.069 26.6889C118.106 26.8758 118.125 27.0627 118.125 27.2496C118.162 27.4364 118.2 27.6233 118.237 27.8102C118.237 27.9971 118.237 28.2026 118.237 28.4269C118.275 28.6138 118.294 28.838 118.294 29.0996V36.0515C118.294 36.201 118.294 36.3318 118.294 36.4439C118.331 36.5561 118.35 36.6869 118.35 36.8364C118.35 37.098 118.35 37.3596 118.35 37.6213C118.387 37.8455 118.425 38.0698 118.463 38.294C118.5 38.5183 118.519 38.7425 118.519 38.9668C118.556 39.191 118.594 39.3966 118.631 39.5835C118.706 39.8077 118.763 40.0133 118.8 40.2002C118.838 40.3497 118.894 40.5179 118.969 40.7048C119.044 40.8916 119.1 41.0411 119.138 41.1533C119.175 41.2654 119.231 41.3775 119.306 41.4896L119.419 41.6018C119.456 41.6391 119.475 41.6765 119.475 41.7139C119.475 41.7139 119.494 41.7326 119.531 41.77L119.756 41.9942H119.813Z" fill="#F4EDE8"/>
<path d="M140.336 14.6914C140.336 16.2612 139.961 17.7001 139.211 19.0083C138.461 20.3164 137.448 21.3629 136.173 22.1478C137.448 22.8953 138.461 23.9418 139.211 25.2873C139.961 26.5955 140.336 28.0344 140.336 29.6042V33.2483C140.299 34.4444 140.055 35.5656 139.605 36.6121C139.155 37.6213 138.536 38.5183 137.748 39.3032C136.961 40.0507 136.042 40.6487 134.992 41.0972C133.942 41.5457 132.817 41.77 131.617 41.77H126.273C126.048 41.77 125.842 41.6765 125.654 41.4896C125.467 41.3028 125.373 41.0972 125.373 40.8729C125.373 41.0972 125.279 41.3028 125.092 41.4896C124.942 41.6765 124.735 41.77 124.473 41.77H121.548C121.548 41.4336 121.604 41.1906 121.716 41.0411C121.866 40.8916 122.016 40.7421 122.166 40.5926C122.316 40.4057 122.448 40.1628 122.56 39.8638C122.71 39.5648 122.785 39.0976 122.785 38.4622V24.7828C122.673 23.6241 122.148 22.7832 121.21 22.2599C121.623 21.9983 122.148 21.8675 122.785 21.8675V5.83338C122.785 5.19799 122.71 4.7308 122.56 4.4318C122.448 4.13279 122.316 3.90854 122.166 3.75904C122.016 3.57216 121.866 3.40397 121.716 3.25447C121.604 3.10496 121.548 2.86202 121.548 2.52564H124.529C124.754 2.52564 124.96 2.61908 125.148 2.80596C125.335 2.95546 125.429 3.16103 125.429 3.42266C125.429 2.82465 125.729 2.52564 126.329 2.52564H131.617C132.817 2.52564 133.942 2.7499 134.992 3.1984C136.042 3.64691 136.961 4.2636 137.748 5.04849C138.536 5.796 139.155 6.69301 139.605 7.73953C140.055 8.78604 140.299 9.88862 140.336 11.0473V14.6914ZM125.823 19.5128C125.823 19.3259 125.804 19.1204 125.767 18.8961C125.767 18.6719 125.767 18.4476 125.767 18.2234V16.99C125.729 16.1677 125.71 15.3828 125.71 14.6353C125.71 13.8878 125.692 13.1777 125.654 12.5049C125.617 12.2059 125.598 11.9069 125.598 11.6079C125.598 11.3089 125.579 11.0286 125.542 10.7669C125.542 10.4679 125.523 10.2063 125.485 9.98206C125.485 9.75781 125.485 9.55224 125.485 9.36537C125.485 9.17849 125.467 9.0103 125.429 8.8608C125.429 8.71129 125.429 8.58048 125.429 8.46835V8.18804C125.392 8.18804 125.373 8.20672 125.373 8.2441V8.46835C125.373 8.58048 125.354 8.71129 125.317 8.8608C125.317 9.0103 125.317 9.17849 125.317 9.36537C125.317 9.55224 125.298 9.75781 125.26 9.98206C125.26 10.2063 125.26 10.4679 125.26 10.7669C125.223 11.0286 125.204 11.3089 125.204 11.6079C125.204 11.9069 125.185 12.2059 125.148 12.5049C125.11 13.1777 125.092 13.8878 125.092 14.6353C125.092 15.3828 125.073 16.1677 125.035 16.99V18.2234C125.035 18.4476 125.017 18.6719 124.979 18.8961C124.979 19.1204 124.979 19.3259 124.979 19.5128V24.7267C124.979 25.0257 124.998 25.25 125.035 25.3995V27.2496C125.035 27.6607 125.035 28.0718 125.035 28.483C125.073 28.8567 125.092 29.2305 125.092 29.6042C125.092 30.0153 125.092 30.3891 125.092 30.7255C125.129 31.0619 125.148 31.3982 125.148 31.7346C125.185 32.071 125.204 32.3887 125.204 32.6877C125.204 32.9493 125.223 33.2296 125.26 33.5286C125.26 33.7903 125.26 34.0332 125.26 34.2575C125.298 34.4817 125.317 34.6873 125.317 34.8742C125.317 35.061 125.317 35.2479 125.317 35.4348C125.354 35.5843 125.373 35.6964 125.373 35.7712V36.0515C125.373 36.0889 125.392 36.1076 125.429 36.1076V35.7712C125.429 35.6964 125.429 35.5843 125.429 35.4348C125.467 35.2479 125.485 35.061 125.485 34.8742C125.485 34.6873 125.485 34.4817 125.485 34.2575C125.523 34.0332 125.542 33.7903 125.542 33.5286C125.579 33.2296 125.598 32.9493 125.598 32.6877C125.598 32.3887 125.617 32.071 125.654 31.7346C125.654 31.3982 125.654 31.0619 125.654 30.7255C125.692 30.3891 125.71 30.0153 125.71 29.6042C125.71 29.2305 125.71 28.8567 125.71 28.483C125.748 28.0718 125.767 27.6607 125.767 27.2496V26.0162C125.767 25.7172 125.785 25.5116 125.823 25.3995V19.5128ZM137.411 32.5195C137.373 32.5943 137.355 32.6877 137.355 32.7998V34.0893C137.317 34.2388 137.298 34.3883 137.298 34.5378C137.298 34.6499 137.298 34.762 137.298 34.8742C137.298 34.9489 137.28 35.005 137.242 35.0424C137.242 35.0797 137.242 35.1358 137.242 35.2105V35.5469C137.205 35.6217 137.186 35.7151 137.186 35.8272C137.186 35.902 137.167 35.9767 137.13 36.0515C137.13 36.1262 137.111 36.1823 137.073 36.2197V36.3318L137.017 36.4439C137.017 36.4439 137.055 36.4253 137.13 36.3879V36.3318L137.186 36.2757C137.223 36.2384 137.242 36.2197 137.242 36.2197C137.242 36.1823 137.261 36.1449 137.298 36.1076C137.336 36.0328 137.373 35.9581 137.411 35.8833C137.448 35.7712 137.486 35.6777 137.523 35.603C137.561 35.5282 137.58 35.4909 137.58 35.4909C137.58 35.4535 137.598 35.3974 137.636 35.3227C137.673 35.2479 137.692 35.1919 137.692 35.1545C137.692 35.1171 137.711 35.061 137.748 34.9863C137.786 34.9115 137.805 34.8555 137.805 34.8181C137.805 34.7434 137.823 34.6686 137.861 34.5938C137.861 34.5191 137.861 34.463 137.861 34.4257C137.898 34.3509 137.917 34.2762 137.917 34.2014C137.955 34.0519 137.973 33.9024 137.973 33.7529C138.011 33.6034 138.048 33.4539 138.086 33.3044C138.123 33.1923 138.142 33.0241 138.142 32.7998C138.142 32.7251 138.142 32.6503 138.142 32.5756C138.18 32.5008 138.198 32.4261 138.198 32.3513V30.3891C138.198 30.1649 138.18 29.9967 138.142 29.8845V29.6603C138.142 29.5855 138.123 29.5482 138.086 29.5482C138.086 29.5108 138.086 29.4734 138.086 29.436C138.086 29.2492 138.067 29.0996 138.03 28.9875C138.03 28.838 138.011 28.6885 137.973 28.539C137.936 28.4643 137.917 28.3895 137.917 28.3148C137.917 28.24 137.898 28.1653 137.861 28.0905C137.861 28.0531 137.842 28.0344 137.805 28.0344C137.805 27.9971 137.805 27.9597 137.805 27.9223C137.805 27.8849 137.786 27.8663 137.748 27.8663C137.748 27.8289 137.748 27.7915 137.748 27.7541C137.711 27.6794 137.692 27.6233 137.692 27.5859C137.692 27.5486 137.673 27.4925 137.636 27.4177C137.598 27.343 137.58 27.2869 137.58 27.2496C137.58 27.2122 137.561 27.1561 137.523 27.0814C137.486 27.044 137.467 27.0066 137.467 26.9692C137.467 26.9319 137.448 26.8945 137.411 26.8571C137.336 26.7076 137.298 26.6329 137.298 26.6329C137.261 26.5955 137.242 26.5768 137.242 26.5768C137.242 26.5394 137.223 26.502 137.186 26.4647C137.148 26.4273 137.13 26.3899 137.13 26.3525L137.017 26.2404C137.017 26.2404 137.036 26.2778 137.073 26.3525V26.4647C137.111 26.502 137.13 26.5768 137.13 26.6889C137.13 26.7263 137.13 26.7637 137.13 26.8011C137.167 26.8011 137.186 26.8384 137.186 26.9132C137.186 27.0253 137.205 27.1187 137.242 27.1935V27.4738C137.242 27.5486 137.242 27.6046 137.242 27.642C137.28 27.6794 137.298 27.7354 137.298 27.8102C137.298 28.1466 137.317 28.4082 137.355 28.5951V29.4921C137.392 29.679 137.411 29.978 137.411 30.3891V32.5195ZM135.105 29.6042C135.105 29.1183 135.086 28.5203 135.048 27.8102C135.011 27.1001 134.88 26.4273 134.654 25.7919C134.429 25.1565 134.073 24.6146 133.586 24.1661C133.136 23.6802 132.461 23.4373 131.561 23.4373H129.535C129.123 23.4746 128.767 23.6428 128.467 23.9418C128.167 24.2408 128.017 24.5959 128.017 25.007V37.6213C128.017 38.0324 128.167 38.3875 128.467 38.6865C128.767 38.9855 129.123 39.135 129.535 39.135H131.561C132.461 39.135 133.136 38.9107 133.586 38.4622C134.073 38.0137 134.429 37.4718 134.654 36.8364C134.88 36.1636 135.011 35.4909 135.048 34.8181C135.086 34.108 135.105 33.51 135.105 33.0241V29.6042ZM135.105 11.2715C135.105 10.7856 135.086 10.1876 135.048 9.47749C135.011 8.76736 134.88 8.0946 134.654 7.45921C134.429 6.82383 134.073 6.28188 133.586 5.83338C133.136 5.3475 132.461 5.10455 131.561 5.10455H129.535C129.123 5.14193 128.767 5.31012 128.467 5.60912C128.167 5.90813 128.017 6.2632 128.017 6.67433V19.2886C128.017 19.6997 128.167 20.0548 128.467 20.3538C128.767 20.6528 129.123 20.8023 129.535 20.8023H131.561C132.461 20.8023 133.136 20.578 133.586 20.1295C134.073 19.681 134.429 19.1391 134.654 18.5037C134.88 17.8309 135.011 17.1582 135.048 16.4854C135.086 15.7753 135.105 15.1773 135.105 14.6914V11.2715ZM137.523 16.8218C137.561 16.747 137.58 16.7097 137.58 16.7097C137.58 16.6723 137.598 16.6162 137.636 16.5415C137.673 16.4667 137.692 16.4107 137.692 16.3733C137.692 16.2985 137.711 16.2238 137.748 16.149C137.786 16.0743 137.805 16.0182 137.805 15.9808C137.805 15.9435 137.823 15.8874 137.861 15.8126C137.861 15.7379 137.861 15.6818 137.861 15.6445C137.898 15.5697 137.917 15.495 137.917 15.4202C137.955 15.2707 137.973 15.1212 137.973 14.9717C138.011 14.8222 138.048 14.6727 138.086 14.5232C138.123 14.4111 138.142 14.2429 138.142 14.0186C138.142 13.9439 138.142 13.8691 138.142 13.7944C138.18 13.7196 138.198 13.6449 138.198 13.5701V11.6079C138.198 11.3836 138.18 11.2155 138.142 11.1033V10.8791C138.142 10.8043 138.123 10.7669 138.086 10.7669C138.086 10.7296 138.086 10.6735 138.086 10.5988C138.086 10.4119 138.048 10.1316 137.973 9.75781C137.936 9.68306 137.917 9.60831 137.917 9.53355C137.917 9.4588 137.898 9.38405 137.861 9.3093C137.861 9.27193 137.842 9.25324 137.805 9.25324C137.805 9.21586 137.805 9.17849 137.805 9.14111C137.805 9.10374 137.786 9.08505 137.748 9.08505C137.748 9.04767 137.748 9.0103 137.748 8.97292C137.711 8.89817 137.692 8.84211 137.692 8.80473C137.692 8.76735 137.673 8.71129 137.636 8.63654C137.598 8.56179 137.58 8.50573 137.58 8.46835C137.58 8.43098 137.561 8.37491 137.523 8.30016C137.486 8.26279 137.467 8.22541 137.467 8.18804C137.467 8.15066 137.448 8.11329 137.411 8.07591C137.336 7.92641 137.298 7.85166 137.298 7.85166C137.261 7.81428 137.242 7.79559 137.242 7.79559C137.242 7.75822 137.223 7.72084 137.186 7.68347C137.148 7.64609 137.13 7.60872 137.13 7.57134C137.092 7.53396 137.073 7.49659 137.073 7.45921H137.017C137.017 7.45921 137.036 7.49659 137.073 7.57134V7.68347C137.111 7.72084 137.13 7.79559 137.13 7.90772C137.13 7.94509 137.13 7.98247 137.13 8.01984C137.167 8.01984 137.186 8.05722 137.186 8.13197C137.186 8.2441 137.205 8.33754 137.242 8.41229V8.69261C137.242 8.76736 137.242 8.82342 137.242 8.8608C137.28 8.89817 137.298 8.95423 137.298 9.02898C137.298 9.36536 137.317 9.62699 137.355 9.81387V10.7109C137.392 10.8978 137.411 11.1968 137.411 11.6079V13.7383C137.373 13.8131 137.355 13.9065 137.355 14.0186V15.3081C137.317 15.4576 137.298 15.6071 137.298 15.7566C137.298 15.8687 137.298 15.9808 137.298 16.093C137.298 16.1677 137.28 16.2238 137.242 16.2612C137.242 16.2985 137.242 16.3546 137.242 16.4293V16.7657C137.205 16.8405 137.186 16.9339 137.186 17.046C137.186 17.1208 137.167 17.1955 137.13 17.2703C137.13 17.345 137.111 17.4011 137.073 17.4385V17.5506L137.017 17.6627C137.017 17.6627 137.055 17.644 137.13 17.6067V17.5506L137.186 17.4945C137.223 17.4572 137.242 17.4385 137.242 17.4385C137.242 17.4011 137.261 17.3637 137.298 17.3264C137.336 17.2516 137.373 17.1769 137.411 17.1021C137.448 16.99 137.486 16.8965 137.523 16.8218Z" fill="#F4EDE8"/>
<path d="M159.509 38.3501C159.509 39.0229 159.566 39.5274 159.678 39.8638C159.828 40.1628 159.978 40.4057 160.128 40.5926C160.278 40.7421 160.409 40.8916 160.522 41.0411C160.672 41.1906 160.747 41.4336 160.747 41.77H145.446C145.221 41.77 145.015 41.6765 144.827 41.4896C144.64 41.3028 144.546 41.0972 144.546 40.8729C144.546 41.0972 144.452 41.3028 144.265 41.4896C144.115 41.6765 143.909 41.77 143.646 41.77H140.721C140.721 41.4336 140.777 41.1906 140.89 41.0411C141.04 40.8916 141.19 40.7421 141.34 40.5926C141.49 40.4057 141.621 40.1628 141.734 39.8638C141.884 39.5648 141.959 39.0976 141.959 38.4622V24.7828C141.846 23.6241 141.321 22.7832 140.383 22.2599C140.796 21.9983 141.321 21.8675 141.959 21.8675V5.83338C141.959 5.19799 141.884 4.7308 141.734 4.4318C141.621 4.13279 141.49 3.90854 141.34 3.75904C141.19 3.57216 141.04 3.40397 140.89 3.25447C140.777 3.10496 140.721 2.86202 140.721 2.52564H143.702C143.927 2.52564 144.134 2.61908 144.321 2.80596C144.509 2.95546 144.602 3.16103 144.602 3.42266C144.602 2.82465 144.902 2.52564 145.502 2.52564H160.747C160.747 2.86202 160.672 3.10496 160.522 3.25447C160.409 3.40397 160.278 3.57216 160.128 3.75904C159.978 3.90854 159.828 4.15148 159.678 4.48786C159.566 4.78686 159.509 5.27274 159.509 5.9455V13.4019C158.197 13.4019 157.184 13.159 156.472 12.6731C155.797 12.1498 155.29 11.5705 154.953 10.9351C154.54 10.225 154.315 9.38405 154.278 8.41229V6.67433C154.278 6.2632 154.128 5.90813 153.828 5.60912C153.528 5.31012 153.172 5.14193 152.759 5.10455H148.709C148.296 5.14193 147.94 5.31012 147.64 5.60912C147.34 5.90813 147.19 6.2632 147.19 6.67433V19.2886C147.19 19.6997 147.34 20.0548 147.64 20.3538C147.94 20.6528 148.296 20.8023 148.709 20.8023H149.103C149.515 20.8023 149.853 20.6528 150.115 20.3538C150.415 20.0548 150.565 19.6997 150.565 19.2886V19.2325C150.603 18.6719 150.753 18.186 151.015 17.7749C151.24 17.4011 151.578 17.0647 152.028 16.7657C152.478 16.4667 153.134 16.3172 153.997 16.3172V27.9223C153.134 27.9223 152.478 27.7728 152.028 27.4738C151.578 27.1748 151.24 26.8384 151.015 26.4647C150.753 26.0535 150.603 25.5677 150.565 25.007C150.565 24.5959 150.415 24.2408 150.115 23.9418C149.853 23.6428 149.515 23.4746 149.103 23.4373H148.709C148.296 23.4746 147.94 23.6428 147.64 23.9418C147.34 24.2408 147.19 24.5959 147.19 25.007V37.6213C147.19 38.0324 147.34 38.3875 147.64 38.6865C147.94 38.9855 148.296 39.135 148.709 39.135H152.759C153.172 39.135 153.528 38.9855 153.828 38.6865C154.128 38.3875 154.278 38.0324 154.278 37.6213V35.8272C154.315 34.8929 154.54 34.0706 154.953 33.3605C155.29 32.7251 155.797 32.1458 156.472 31.6225C157.184 31.0992 158.197 30.8376 159.509 30.8376V38.3501ZM144.996 19.5128C144.996 19.3259 144.977 19.1204 144.94 18.8961C144.94 18.6719 144.94 18.4476 144.94 18.2234V16.99C144.902 16.1677 144.884 15.3828 144.884 14.6353C144.884 13.8878 144.865 13.1777 144.827 12.5049C144.79 12.2059 144.771 11.9069 144.771 11.6079C144.771 11.3089 144.752 11.0286 144.715 10.7669C144.715 10.4679 144.696 10.2063 144.659 9.98206C144.659 9.75781 144.659 9.55224 144.659 9.36537C144.659 9.17849 144.64 9.0103 144.602 8.8608C144.602 8.71129 144.602 8.58048 144.602 8.46835V8.18804C144.565 8.18804 144.546 8.20672 144.546 8.2441V8.46835C144.546 8.58048 144.527 8.71129 144.49 8.8608C144.49 9.0103 144.49 9.17849 144.49 9.36537C144.49 9.55224 144.471 9.75781 144.434 9.98206C144.434 10.2063 144.434 10.4679 144.434 10.7669C144.396 11.0286 144.377 11.3089 144.377 11.6079C144.377 11.9069 144.359 12.2059 144.321 12.5049C144.284 13.1777 144.265 13.8878 144.265 14.6353C144.265 15.3828 144.246 16.1677 144.209 16.99V18.2234C144.209 18.4476 144.19 18.6719 144.152 18.8961C144.152 19.1204 144.152 19.3259 144.152 19.5128V24.7267C144.152 25.0257 144.171 25.25 144.209 25.3995V27.2496C144.209 27.6607 144.209 28.0718 144.209 28.483C144.246 28.8567 144.265 29.2305 144.265 29.6042C144.265 30.0153 144.265 30.3891 144.265 30.7255C144.302 31.0619 144.321 31.3982 144.321 31.7346C144.359 32.071 144.377 32.3887 144.377 32.6877C144.377 32.9493 144.396 33.2296 144.434 33.5286C144.434 33.7903 144.434 34.0332 144.434 34.2575C144.471 34.4817 144.49 34.6873 144.49 34.8742C144.49 35.061 144.49 35.2479 144.49 35.4348C144.527 35.5843 144.546 35.6964 144.546 35.7712V36.0515C144.546 36.0889 144.565 36.1076 144.602 36.1076V35.7712C144.602 35.6964 144.602 35.5843 144.602 35.4348C144.64 35.2479 144.659 35.061 144.659 34.8742C144.659 34.6873 144.659 34.4817 144.659 34.2575C144.696 34.0332 144.715 33.7903 144.715 33.5286C144.752 33.2296 144.771 32.9493 144.771 32.6877C144.771 32.3887 144.79 32.071 144.827 31.7346C144.827 31.3982 144.827 31.0619 144.827 30.7255C144.865 30.3891 144.884 30.0153 144.884 29.6042C144.884 29.2305 144.884 28.8567 144.884 28.483C144.921 28.0718 144.94 27.6607 144.94 27.2496V26.0162C144.94 25.7172 144.959 25.5116 144.996 25.3995V19.5128Z" fill="#F4EDE8"/>
<path d="M182.139 44.1246C182.551 44.1994 182.833 44.3302 182.983 44.5171C183.17 44.7039 183.301 44.8908 183.376 45.0777C183.451 45.3019 183.489 45.5449 183.489 45.8065C182.289 45.8065 181.164 45.657 180.114 45.358C179.064 45.059 178.126 44.5731 177.301 43.9004C176.514 43.2276 175.876 42.3493 175.388 41.2654C174.938 40.1815 174.713 38.8547 174.713 37.2849V29.6042C174.713 29.1183 174.695 28.5203 174.657 27.8102C174.62 27.1001 174.488 26.4273 174.263 25.7919C174.038 25.1565 173.682 24.6146 173.195 24.1661C172.745 23.6802 172.07 23.4373 171.17 23.4373H168.863C168.526 23.512 168.226 23.6989 167.963 23.9979C167.738 24.2595 167.626 24.5772 167.626 24.951V38.3501C167.626 39.0229 167.682 39.5274 167.794 39.8638C167.944 40.1628 168.094 40.4057 168.244 40.5926C168.394 40.7421 168.526 40.8916 168.638 41.0411C168.788 41.1906 168.863 41.4336 168.863 41.77H165.882C165.657 41.77 165.45 41.6765 165.263 41.4896C165.075 41.3028 164.982 41.0972 164.982 40.8729C164.982 41.0972 164.888 41.3028 164.7 41.4896C164.55 41.6765 164.344 41.77 164.082 41.77H161.157C161.157 41.4336 161.213 41.1906 161.325 41.0411C161.475 40.8916 161.625 40.7421 161.775 40.5926C161.925 40.4057 162.057 40.1628 162.169 39.8638C162.319 39.5648 162.394 39.0976 162.394 38.4622V24.7828C162.282 23.6241 161.757 22.7832 160.819 22.2599C161.232 21.9983 161.757 21.8675 162.394 21.8675V5.83338C162.394 5.19799 162.319 4.7308 162.169 4.4318C162.057 4.13279 161.925 3.90854 161.775 3.75904C161.625 3.57216 161.475 3.40397 161.325 3.25447C161.213 3.10496 161.157 2.86202 161.157 2.52564H164.138C164.363 2.52564 164.569 2.61908 164.757 2.80596C164.944 2.95546 165.038 3.16103 165.038 3.42266C165.038 2.82465 165.338 2.52564 165.938 2.52564H171.226C172.426 2.52564 173.551 2.7499 174.601 3.1984C175.651 3.64691 176.57 4.2636 177.357 5.04849C178.145 5.796 178.764 6.69301 179.214 7.73953C179.664 8.78604 179.907 9.88862 179.945 11.0473V14.6914C179.945 16.2612 179.57 17.7001 178.82 19.0083C178.07 20.3164 177.057 21.3629 175.782 22.1478C177.057 22.8953 178.07 23.9418 178.82 25.2873C179.57 26.5955 179.945 28.0344 179.945 29.6042V37.0606C179.945 37.8455 179.945 38.6491 179.945 39.4714C179.982 40.2562 180.076 40.9851 180.226 41.6578C180.376 42.2932 180.601 42.8352 180.901 43.2837C181.201 43.7322 181.614 44.0125 182.139 44.1246ZM177.02 13.7383C176.982 13.8131 176.964 13.9065 176.964 14.0186V15.3081C176.926 15.4576 176.907 15.6071 176.907 15.7566C176.907 15.8687 176.907 15.9808 176.907 16.093C176.907 16.1677 176.889 16.2238 176.851 16.2612C176.851 16.2985 176.851 16.3546 176.851 16.4293V16.7657C176.814 16.8405 176.795 16.9339 176.795 17.046C176.795 17.1208 176.776 17.1955 176.739 17.2703C176.739 17.345 176.72 17.4011 176.682 17.4385V17.5506L176.626 17.6627C176.626 17.6627 176.664 17.644 176.739 17.6067V17.5506L176.795 17.4945C176.832 17.4572 176.851 17.4385 176.851 17.4385C176.851 17.4011 176.87 17.3637 176.907 17.3264C176.945 17.2516 176.982 17.1769 177.02 17.1021C177.057 16.99 177.095 16.8965 177.132 16.8218C177.17 16.747 177.189 16.7097 177.189 16.7097C177.189 16.6723 177.207 16.6162 177.245 16.5415C177.282 16.4667 177.301 16.4107 177.301 16.3733C177.301 16.2985 177.32 16.2238 177.357 16.149C177.395 16.0743 177.414 16.0182 177.414 15.9808C177.414 15.9435 177.432 15.8874 177.47 15.8126C177.47 15.7379 177.47 15.6818 177.47 15.6445C177.507 15.5697 177.526 15.495 177.526 15.4202C177.564 15.2707 177.582 15.1212 177.582 14.9717C177.62 14.8222 177.657 14.6727 177.695 14.5232C177.732 14.4111 177.751 14.2429 177.751 14.0186C177.751 13.9439 177.751 13.8691 177.751 13.7944C177.789 13.7196 177.807 13.6449 177.807 13.5701V11.6079C177.807 11.3836 177.789 11.2155 177.751 11.1033V10.8791C177.751 10.8043 177.732 10.7669 177.695 10.7669C177.695 10.7296 177.695 10.6735 177.695 10.5988C177.695 10.4119 177.657 10.1316 177.582 9.75781C177.545 9.68306 177.526 9.60831 177.526 9.53355C177.526 9.4588 177.507 9.38405 177.47 9.3093C177.47 9.27193 177.451 9.25324 177.414 9.25324C177.414 9.21586 177.414 9.17849 177.414 9.14111C177.414 9.10374 177.395 9.08505 177.357 9.08505C177.357 9.04767 177.357 9.0103 177.357 8.97292C177.32 8.89817 177.301 8.84211 177.301 8.80473C177.301 8.76735 177.282 8.71129 177.245 8.63654C177.207 8.56179 177.189 8.50573 177.189 8.46835C177.189 8.43098 177.17 8.37491 177.132 8.30016C177.095 8.26279 177.076 8.22541 177.076 8.18804C177.076 8.15066 177.057 8.11329 177.02 8.07591C176.945 7.92641 176.907 7.85166 176.907 7.85166C176.87 7.81428 176.851 7.79559 176.851 7.79559C176.851 7.75822 176.832 7.72084 176.795 7.68347C176.757 7.64609 176.739 7.60872 176.739 7.57134C176.701 7.53396 176.682 7.49659 176.682 7.45921H176.626C176.626 7.45921 176.645 7.49659 176.682 7.57134V7.68347C176.72 7.72084 176.739 7.79559 176.739 7.90772C176.739 7.94509 176.739 7.98247 176.739 8.01984C176.776 8.01984 176.795 8.05722 176.795 8.13197C176.795 8.2441 176.814 8.33754 176.851 8.41229V8.69261C176.851 8.76736 176.851 8.82342 176.851 8.8608C176.889 8.89817 176.907 8.95423 176.907 9.02898C176.907 9.36536 176.926 9.62699 176.964 9.81387V10.7109C177.001 10.8978 177.02 11.1968 177.02 11.6079V13.7383ZM165.432 19.5128C165.432 19.3259 165.413 19.1204 165.375 18.8961C165.375 18.6719 165.375 18.4476 165.375 18.2234V16.99C165.338 16.1677 165.319 15.3828 165.319 14.6353C165.319 13.8878 165.3 13.1777 165.263 12.5049C165.225 12.2059 165.207 11.9069 165.207 11.6079C165.207 11.3089 165.188 11.0286 165.15 10.7669C165.15 10.4679 165.132 10.2063 165.094 9.98206C165.094 9.75781 165.094 9.55224 165.094 9.36537C165.094 9.17849 165.075 9.0103 165.038 8.8608C165.038 8.71129 165.038 8.58048 165.038 8.46835V8.18804C165 8.18804 164.982 8.20672 164.982 8.2441V8.46835C164.982 8.58048 164.963 8.71129 164.925 8.8608C164.925 9.0103 164.925 9.17849 164.925 9.36537C164.925 9.55224 164.907 9.75781 164.869 9.98206C164.869 10.2063 164.869 10.4679 164.869 10.7669C164.832 11.0286 164.813 11.3089 164.813 11.6079C164.813 11.9069 164.794 12.2059 164.757 12.5049C164.719 13.1777 164.7 13.8878 164.7 14.6353C164.7 15.3828 164.682 16.1677 164.644 16.99V18.2234C164.644 18.4476 164.625 18.6719 164.588 18.8961C164.588 19.1204 164.588 19.3259 164.588 19.5128V24.7267C164.588 25.0257 164.607 25.25 164.644 25.3995V27.2496C164.644 27.6607 164.644 28.0718 164.644 28.483C164.682 28.8567 164.7 29.2305 164.7 29.6042C164.7 30.0153 164.7 30.3891 164.7 30.7255C164.738 31.0619 164.757 31.3982 164.757 31.7346C164.794 32.071 164.813 32.3887 164.813 32.6877C164.813 32.9493 164.832 33.2296 164.869 33.5286C164.869 33.7903 164.869 34.0332 164.869 34.2575C164.907 34.4817 164.925 34.6873 164.925 34.8742C164.925 35.061 164.925 35.2479 164.925 35.4348C164.963 35.5843 164.982 35.6964 164.982 35.7712V36.0515C164.982 36.0889 165 36.1076 165.038 36.1076V35.7712C165.038 35.6964 165.038 35.5843 165.038 35.4348C165.075 35.2479 165.094 35.061 165.094 34.8742C165.094 34.6873 165.094 34.4817 165.094 34.2575C165.132 34.0332 165.15 33.7903 165.15 33.5286C165.188 33.2296 165.207 32.9493 165.207 32.6877C165.207 32.3887 165.225 32.071 165.263 31.7346C165.263 31.3982 165.263 31.0619 165.263 30.7255C165.3 30.3891 165.319 30.0153 165.319 29.6042C165.319 29.2305 165.319 28.8567 165.319 28.483C165.357 28.0718 165.375 27.6607 165.375 27.2496V26.0162C165.375 25.7172 165.394 25.5116 165.432 25.3995V19.5128ZM174.713 11.2715C174.713 10.7856 174.695 10.1876 174.657 9.47749C174.62 8.76736 174.488 8.0946 174.263 7.45921C174.038 6.82383 173.682 6.28188 173.195 5.83338C172.745 5.3475 172.07 5.10455 171.17 5.10455H169.144C168.732 5.14193 168.376 5.31012 168.076 5.60912C167.776 5.90813 167.626 6.2632 167.626 6.67433V19.2886C167.626 19.6997 167.776 20.0548 168.076 20.3538C168.376 20.6528 168.732 20.8023 169.144 20.8023H171.17C172.07 20.8023 172.745 20.578 173.195 20.1295C173.682 19.681 174.038 19.1391 174.263 18.5037C174.488 17.8309 174.62 17.1582 174.657 16.4854C174.695 15.7753 174.713 15.1773 174.713 14.6914V11.2715ZM178.482 41.9942C178.482 41.9942 178.464 41.9755 178.426 41.9381L178.37 41.8821C178.332 41.8073 178.295 41.7326 178.257 41.6578C178.257 41.5831 178.22 41.5083 178.145 41.4336C178.107 41.3214 178.07 41.2093 178.032 41.0972C177.995 40.9477 177.957 40.7795 177.92 40.5926C177.845 40.2189 177.807 39.8638 177.807 39.5274C177.77 39.3405 177.751 39.1537 177.751 38.9668C177.751 38.7425 177.751 38.4996 177.751 38.238V35.2666C177.751 35.005 177.751 34.7434 177.751 34.4817C177.751 34.2201 177.77 33.9398 177.807 33.6408C177.807 33.3791 177.807 33.1175 177.807 32.8559C177.807 32.5943 177.789 32.3326 177.751 32.071V31.2861C177.751 30.9124 177.732 30.6507 177.695 30.5012C177.695 30.2396 177.676 29.9967 177.639 29.7724C177.639 29.5108 177.62 29.2678 177.582 29.0436C177.507 28.5203 177.432 28.0718 177.357 27.6981C177.32 27.5112 177.282 27.343 177.245 27.1935C177.207 27.0066 177.151 26.8197 177.076 26.6329C177.001 26.446 176.945 26.2965 176.907 26.1844C176.87 26.0722 176.814 25.9601 176.739 25.848C176.664 25.7358 176.607 25.6424 176.57 25.5677C176.532 25.4929 176.495 25.4182 176.457 25.3434C176.42 25.3434 176.382 25.3247 176.345 25.2873C176.307 25.2873 176.289 25.2687 176.289 25.2313L176.345 25.2873C176.345 25.3247 176.364 25.3621 176.401 25.3995C176.401 25.4368 176.401 25.4742 176.401 25.5116C176.439 25.5116 176.457 25.549 176.457 25.6237C176.495 25.6611 176.514 25.6985 176.514 25.7358C176.514 25.7732 176.532 25.8293 176.57 25.904C176.607 26.0535 176.664 26.3152 176.739 26.6889C176.776 26.8758 176.795 27.0627 176.795 27.2496C176.832 27.4364 176.87 27.6233 176.907 27.8102C176.907 27.9971 176.907 28.2026 176.907 28.4269C176.945 28.6138 176.964 28.838 176.964 29.0996V36.0515C176.964 36.201 176.964 36.3318 176.964 36.4439C177.001 36.5561 177.02 36.6869 177.02 36.8364C177.02 37.098 177.02 37.3596 177.02 37.6213C177.057 37.8455 177.095 38.0698 177.132 38.294C177.17 38.5183 177.189 38.7425 177.189 38.9668C177.226 39.191 177.264 39.3966 177.301 39.5835C177.376 39.8077 177.432 40.0133 177.47 40.2002C177.507 40.3497 177.564 40.5179 177.639 40.7048C177.714 40.8916 177.77 41.0411 177.807 41.1533C177.845 41.2654 177.901 41.3775 177.976 41.4896L178.089 41.6018C178.126 41.6391 178.145 41.6765 178.145 41.7139C178.145 41.7139 178.164 41.7326 178.201 41.77L178.426 41.9942H178.482Z" fill="#F4EDE8"/>
<ellipse rx="3.01354" ry="3.00339" transform="matrix(1 0 0 -1 194.947 23.0288)" fill="#999591"/>
<ellipse rx="3.01354" ry="3.00339" transform="matrix(1 0 0 -1 3.08571 23.0288)" fill="#999591"/>
</svg>
